<?xml version="1.0" encoding="utf-8"?>
<!-- Generator: Adobe Illustrator 27.7.0, SVG Export Plug-In . SVG Version: 6.00 Build 0)  -->
<svg version="1.1" id="Layer_1" xmlns="http://www.w3.org/2000/svg" xmlns:xlink="http://www.w3.org/1999/xlink" x="0px" y="0px"
	 viewBox="0 0 1268 1280" style="enable-background:new 0 0 1268 1280;" xml:space="preserve">
<style type="text/css">
	.st0{fill:#6610F2;}
</style>
<g transform="translate(0.000000,1280.000000) scale(0.100000,-0.100000)">
	<path class="st0" d="M5885,12794c-22-2-103-9-180-14c-557-43-1176-180-1703-376c-1193-445-2205-1206-2969-2234
		c-176-237-285-423-434-742C270,8725,79,8001,15,7225c-22-269-17-323,10-108c82,644,276,1322,541,1884c504,1069,1266,1950,2254,2604
		c265,176,394,251,660,383c708,353,1467,560,2325,634c222,19,795,16,1025-5c838-78,1611-302,2330-675c1823-946,3062-2689,3349-4712
		c72-504,80-1088,21-1599c-83-725-290-1426-611-2071C11118,1953,9674,759,7963,290c-388-106-792-175-1238-212c-192-15-716-15-910,1
		c-714,57-1352,207-1940,457c-206,88-595,282-770,384c-999,587-1820,1439-2374,2467c-187,348-402,882-506,1260c-16,57-30,101-32,99
		c-8-7,57-236,117-418c254-762,676-1505,1206-2123c144-168,423-452,588-599C3420,433,5184-140,6940,36c2009,200,3793,1332,4835,3068
		c493,820,778,1692,882,2696c13,125,17,262,17,565c1,407-5,524-45,830c-221,1725-1119,3266-2517,4318c-858,646-1875,1070-2933,1221
		c-329,47-483,58-879,61C6094,12797,5907,12796,5885,12794z"/>
	<path class="st0" d="M5876,12480c-429-28-900-108-1304-221c-1586-444-2968-1552-3749-3004c-231-429-433-1122-518-1780
		c-25-195-16-183,29,40c120,583,272,1029,525,1535c402,804,970,1499,1681,2059c179,141,525,375,719,486c1210,691,2589,945,3971,729
		c856-133,1679-456,2414-947c755-504,1403-1194,1871-1992c115-196,296-566,381-780c218-551,351-1099,409-1695c20-196,28-773,14-965
		c-58-808-263-1567-615-2275c-305-612-639-1079-1139-1590c-162-165-173-178-73-87c203,188,475,496,673,762
		c398,535,731,1190,928,1826c132,424,210,818,253,1274c21,221,24,803,5,1005c-74,812-260,1487-601,2186c-403,827-931,1493-1646,2076
		c-942,768-2064,1221-3324,1343C6588,12484,6064,12492,5876,12480z"/>
	<path class="st0" d="M5831,12210c-812-63-1543-267-2256-628c-399-202-769-447-1126-742c-189-157-598-571-701-710
		c-512-690-878-1544-1034-2409c-34-190-29-192,16-6c136,568,399,1183,720,1686c594,931,1426,1659,2430,2129
		c583,273,1165,429,1870,502c196,20,903,17,1100-5c992-112,1811-407,2609-940c508-339,1013-816,1377-1302
		c658-875,1033-1865,1135-2995c16-178,17-686,1-875c-103-1210-543-2292-1311-3220c-151-183-529-562-706-709
		c-584-486-1213-835-1916-1064c-367-121-746-201-1169-247c-198-22-726-31-950-16c-883,59-1729,310-2456,727c-163,94-504,322-649,434
		c-841,651-1471,1487-1850,2455c-136,345-246,750-309,1130c-33,199-36,211-30,135c7-90,49-328,85-490c354-1561,1355-2910,2753-3709
		c700-400,1432-635,2271-727c189-21,774-30,976-15c987,74,1867,362,2699,884c344,216,687,492,995,801c882,885,1460,2035,1634,3251
		c45,313,55,475,55,850s-10,537-55,850c-154,1072-633,2118-1358,2960c-124,144-375,399-527,536c-712,637-1562,1087-2489,1318
		c-281,69-553,115-905,152C6624,12215,5978,12221,5831,12210z"/>
	<path class="st0" d="M5840,11859c-1363-109-2594-681-3549-1648c-345-350-625-720-871-1153c-148-260-310-720-403-1143
		c-42-189-84-433-91-531c-5-57,0-42,28,86c193,888,588,1691,1178,2392c143,170,477,504,638,638c806,670,1752,1092,2755,1229
		c242,33,345,41,625,48c1092,24,2160-273,3055-851c361-233,645-466,960-787c1153-1178,1699-2780,1509-4429
		c-115-1001-518-1963-1156-2757c-139-173-267-314-452-498c-89-88-129-132-91-98c101,88,356,351,461,473c445,523,812,1169,1027,1810
		c206,612,302,1252,283,1890c-16,571-100,1047-280,1586c-355,1060-1017,1979-1908,2650c-812,611-1766,977-2823,1084
		C6590,11865,5986,11871,5840,11859z"/>
	<path class="st0" d="M5930,11559c-1697-102-3227-1014-4138-2466c-104-166-162-282-235-468c-159-406-257-784-316-1215
		c-38-277-48-495-42-890c2-148,19-108,20,48c3,426,124,1044,298,1515c473,1284,1458,2339,2698,2888c1046,463,2186,561,3302,283
		c360-89,665-200,988-359c489-240,896-530,1294-920c836-820,1340-1807,1491-2920c56-415,63-842,20-1245
		c-124-1158-635-2222-1464-3045c-811-805-1838-1302-2961-1434c-301-36-769-46-1025-22c-664,61-1205,209-1775,485
		c-1032,500-1870,1338-2361,2361c-68,142-159,354-194,453c-13,34-25,61-27,59c-2-3,16-58,41-123c206-555,523-1085,925-1554
		c208-242,533-542,813-751c426-318,946-585,1463-752c1939-628,4065-40,5422,1498c559,633,969,1437,1153,2258
		c262,1171,110,2408-425,3466c-423,837-1079,1558-1874,2060C8109,11345,7016,11624,5930,11559z"/>
	<path class="st0" d="M602,5725c0-16,2-22,5-12c2,9,2,23,0,30C604,5749,602,5742,602,5725z"/>
	<path class="st0" d="M612,5640c0-19,2-27,5-17c2,9,2,25,0,35C614,5667,612,5659,612,5640z"/>
	<path class="st0" d="M181,4774c0-11,3-14,6-6c3,7,2,16-1,19C183,4791,180,4785,181,4774z"/>
</g>
</svg>
