<?xml version="1.0" encoding="utf-8"?>
<!-- Generator: Adobe Illustrator 27.7.0, SVG Export Plug-In . SVG Version: 6.00 Build 0)  -->
<svg version="1.1" id="Layer_1" xmlns="http://www.w3.org/2000/svg" xmlns:xlink="http://www.w3.org/1999/xlink" x="0px" y="0px"
	 viewBox="0 0 1280 1264" style="enable-background:new 0 0 1280 1264;" xml:space="preserve">
<style type="text/css">
	.st0{fill:#3C0A8C;}
</style>
<g transform="translate(0.000000,1264.000000) scale(0.100000,-0.100000)">
	<path class="st0" d="M5929.33,12703.21c-245.74-21.26-376.54-39.48-374.55-51.63c0.99-7.09-55.49-18.22-146.65-29.36
		c-82.24-9.11-188.27-25.31-234.84-35.43c-241.78-53.66-449.86-106.3-596.51-152.87c-90.17-28.35-208.09-64.79-261.59-82
		c-460.76-139.71-1028.54-420.15-1479.39-727.92c-231.87-158.95-579.67-434.32-765.95-607.44
		c-213.04-198.43-533.09-524.43-652.99-667.17c-281.41-334.09-527.15-693.5-685.69-1007.34
		c-76.3-149.84-264.57-569.98-321.05-713.74c-106.02-274.36-229.88-726.91-286.36-1042.78c-49.54-280.44-60.44-395.85-60.44-658.06
		c0-249.05,6.94-328.02,26.75-321.94c18.83,7.09,36.66,72.89,77.29,281.45c20.81,108.33,42.61,220.7,47.56,248.04
		c7.93,39.48,8.92,25.31,3.96-65.81c-3.96-63.78-6.94-221.72-6.94-351.3c0-258.16,5.95-285.5,44.59-218.68
		c16.84,27.33,28.74,79.98,45.58,190.33l22.79,151.86l-5.95-193.37c-2.97-130.6-0.99-223.74,6.94-286.51
		c12.88-92.13,12.88-93.14,25.76-61.76c9.91,23.29,33.69,229.82,33.69,289.55c0,2.02,6.94,4.05,14.86,4.05
		c24.77,0,63.42,153.89,124.85,497.09c31.71,181.22,71.34,388.76,88.19,460.64c34.68,147.81,78.28,301.7,84.22,295.62
		c2.97-2.02-1.98-39.48-9.91-83.02c-17.84-93.14-16.85-87.07-4.95-87.07c5.95,0,9.91,8.1,9.91,18.22
		c0.99,12.15,4.95,9.11,15.85-11.14c7.93-15.19,18.83-25.31,24.77-22.27c4.95,4.05,24.77,37.46,43.6,73.91
		c19.82,40.5,33.69,59.73,34.68,47.58c0-12.15,3.96-25.31,8.92-30.37c4.95-6.07,4.95-59.73,0-121.49
		c-10.9-154.9,3.96-278.41,32.7-278.41c12.88,0,41.62,71.88,107.02,271.32c66.39,197.42,70.35,206.53,79.27,179.2
		c4.95-14.17,14.86-1.01,39.64,56.69c74.32,167.05,282.4,580.11,361.67,715.77c100.08,173.12,153.59,252.09,423.11,620.6
		c289.34,394.84,415.18,550.75,665.87,819.04c123.86,132.62,144.67,146.8,65.4,45.56c-141.7-183.25-212.05-318.91-164.49-318.91
		c17.84,0,122.87,83.02,318.07,252.09c587.59,510.25,985.93,787.65,1493.26,1037.71c553.9,274.36,1117.71,433.31,1781.6,504.18
		c166.47,17.21,785.77,17.21,951.25,0c322.04-34.42,655.96-98.2,917.56-174.13c1705.31-494.05,3036.06-1797.02,3585.01-3510
		c117.92-369.53,194.21-755.25,235.83-1192.61c15.85-173.12,15.85-690.46,0-870.67c-62.42-694.51-242.77-1343.46-551.92-1984.31
		c-409.23-850.42-1032.5-1577.33-1813.31-2115.92c-874.95-602.38-1853.94-910.15-2997.42-942.55
		c-908.64-26.32-1768.72,176.16-2645.65,623.64c-139.71,70.87-105.03,38.47,49.54-46.57
		c645.06-355.35,1338.68-565.93,2120.49-643.89c178.36-17.21,811.53-17.21,990.88,0c1344.63,133.64,2488.1,675.27,3442.32,1631.99
		c102.06,103.27,231.87,239.94,286.36,303.72c135.75,157.94,144.67,166.03,70.35,60.74c-17.84-25.31-31.71-53.66-30.72-62.77
		c2.97-23.29-222.95-281.45-396.35-454.57c-385.45-382.69-798.65-695.52-1251.48-943.56
		c-245.74-134.65-698.57-307.77-1051.33-400.91C7506.81,700.15,7182.79,654.6,6627.9,630.3c-138.72-6.07-289.34-15.19-333.93-21.26
		c-201.15-24.3-773.88,41.51-1152.4,133.64c-876.93,213.62-1693.42,634.78-2402.89,1240.19
		c-117.91,101.24-399.33,379.65-580.66,576.06c-145.66,156.92-310.15,367.5-444.91,569.98c-34.68,51.63-64.41,91.12-67.38,88.08
		c-14.86-15.19,242.77-372.56,405.27-562.9c45.58-53.66,117.92-138.7,160.52-189.32c109-128.58,426.08-443.43,566.78-564.92
		c570.75-485.95,1199.96-841.31,1897.54-1071.12c204.12-67.83,513.28-146.8,708.48-183.25c76.3-13.16,161.51-29.36,188.27-34.42
		c29.73-5.06,38.64-9.11,22.79-10.12c-52.52-2.02-382.48,60.74-580.66,111.36c-381.49,96.18-761.99,236.9-1106.81,410.02
		c-843.24,423.18-1527.94,1001.27-2073.92,1753.48c-57.47,78.97-106.02,141.74-109,138.7c-5.95-5.06,67.38-111.36,175.39-253.1
		c491.48-644.9,1101.86-1174.39,1789.53-1551c873.96-477.85,1872.77-714.76,2898.33-687.42c133.77,3.04,280.42,8.1,326.99,11.14
		l84.23,4.05l-87.2-14.17c-160.52-25.31-406.26-38.47-680.74-38.47c-614.35,1.01-1077.09,74.92-1605.23,256.14
		c-483.55,166.03-1033.49,449.51-1446.69,745.13c-1003.76,717.79-1762.78,1722.1-2149.22,2841.82
		c-64.41,188.31-83.23,179.2-21.8-10.12C1316.78,3362.78,1925.18,2442.5,2705.99,1749c42.61-37.46,77.29-70.87,77.29-72.89
		c0-3.04-25.76,16.2-56.48,43.53c-349.78,299.67-655.96,629.72-929.45,1001.27c-223.94,303.72-379.51,566.95-596.51,1007.34
		c-84.22,170.08-159.53,315.87-167.46,323.97c-11.89,12.15-13.87,12.15-13.87-5.06c0-24.3,18.83-88.08,53.51-181.22
		c13.87-37.46,23.78-72.89,20.81-77.96c-16.84-27.33,297.26-601.37,491.48-896.99c349.78-532.52,824.41-1041.76,1341.65-1440.65
		c144.67-110.35,415.18-293.6,574.71-388.76c162.5-96.18,182.32-111.36,69.36-50.62c-269.52,142.75-638.13,399.9-921.52,641.86
		c-444.91,378.64-818.47,801.82-1132.58,1283.73c-114.94,174.13-232.86,376.61-225.92,383.7c7.93,8.1-53.51,127.56-78.28,149.84
		c-10.9,11.14-35.67,56.69-53.51,101.24c-17.84,44.55-56.48,126.55-85.22,182.23c-106.02,202.48-261.59,643.89-346.81,981.02
		c-109,433.31-163.5,799.8-183.31,1246.27c-13.87,295.62-16.84,317.9-17.84,136.67c-4.95-439.38,79.27-1016.45,220.97-1519.62
		c163.5-578.08,416.17-1141.99,734.24-1636.04c51.53-79.98,91.16-150.85,88.19-155.91c-11.89-18.22,128.81-214.63,371.58-519.36
		c16.84-21.26,3.96-14.17-39.64,23.29c-73.33,61.76-86.21,54.67-40.63-22.27l30.72-52.65l-45.58,50.62
		c-75.31,82-269.52,333.08-372.57,480.89c-320.05,459.63-596.51,997.22-777.84,1513.54c-27.74,77.96-55.49,155.91-61.43,172.11
		l-10.9,30.37l3.96-35.43c1.98-19.24,31.71-115.41,65.4-212.6c304.2-869.66,789.73-1656.29,1426.87-2309.29
		c202.14-206.53,310.15-305.75,535.08-490c243.76-199.44,362.66-288.54,564.8-425.21C4074.4,429.84,5032.58,97.77,6065.08,22.86
		c214.03-15.19,650.02-12.15,870.98,6.07c744.15,60.74,1479.39,265.25,2148.23,597.32c571.74,283.47,1152.4,686.41,1573.52,1091.37
		c56.48,53.66,104.04,97.19,106.02,97.19c16.84,0-36.66-70.87-101.07-132.62c-395.36-385.73-977.01-793.72-1501.19-1051.89
		C8325.28,217.24,7460.24,11.72,6509-2.45c-966.11-13.16-1882.68,193.37-2758.61,622.63
		c-892.78,437.36-1665.67,1085.3-2268.13,1903.32C814.4,3429.59,410.12,4444.02,276.35,5550.58
		c-28.74,240.95-50.53,384.71-59.45,389.78c-29.73,18.22-15.85-316.88,24.77-595.29c153.59-1068.09,570.75-2076.44,1207.88-2922.81
		C2079.75,1585,2922.99,909.72,3873.25,480.46C4971.15-15.62,6132.46-174.56,7351.24,3.62
		c714.43,104.28,1487.31,372.56,2124.45,738.04c793.7,453.56,1434.8,1031.64,1995.64,1797.02
		c427.07,582.13,773.88,1311.06,978,2055.18c153.59,560.87,220.97,1066.06,236.82,1776.77c0.99,74.92,1.98-25.31,0-222.73
		c-0.99-239.94-7.93-412.05-17.84-516.33c-107.01-1055.94-411.22-1968.11-948.27-2843.84c-59.45-97.19-107.01-178.18-104.04-180.21
		c6.94-8.1,72.33,82,152.6,209.57c486.52,778.54,796.67,1663.38,917.56,2612c47.56,374.59,64.41,941.54,36.66,1280.69
		c-59.45,746.14-215.02,1406.23-476.61,2024.81c-27.75,66.82-64.41,161.99-81.25,211.59c-152.6,463.68-532.1,1109.59-949.26,1615.8
		c-145.66,176.16-454.81,493.04-619.3,631.74c-284.38,240.95-626.24,485.95-827.39,592.26
		c-412.21,216.65-577.68,295.62-842.25,400.91c-73.33,29.36-205.11,83.02-292.31,118.45
		c-474.63,197.42-1010.7,325.99-1620.09,388.76C6786.44,12717.39,6158.22,12722.45,5929.33,12703.21z M4155.65,12194.99
		c-678.75-275.37-1343.64-683.37-1867.81-1146.04c-140.71-124.53-397.34-379.65-535.08-532.52c-90.17-100.23-88.19-92.13,8.92,30.37
		c258.62,325.99,761,758.29,1244.55,1070.11c334.92,216.65,792.71,456.59,1070.15,560.87
		C4165.56,12211.19,4230.96,12225.36,4155.65,12194.99z M3349.07,11610.83c-6.94-8.1-52.52-39.48-103.05-69.86
		c-385.45-234.88-850.18-614.53-1141.5-930.4c-106.02-115.41-408.24-413.06-367.62-362.44c14.86,19.24,87.2,101.24,159.53,182.23
		c387.43,431.28,836.3,807.9,1336.7,1120.73c65.4,40.5,120.89,73.91,122.87,73.91C3358.98,11625,3355.02,11618.93,3349.07,11610.83z
		 M1197.87,9534.39c0-2.03-17.84-34.42-39.64-70.87c-50.54-84.03-135.75-257.15-207.09-421.16c-30.72-69.86-65.4-136.67-76.3-148.82
		c-38.64-42.52-258.62-559.86-321.05-756.27c-20.81-67.83-39.64-104.28-39.64-78.97c0,38.47,138.72,427.23,222.95,626.68
		c100.08,236.9,261.59,547.71,417.16,806.89C1179.04,9532.37,1197.87,9551.6,1197.87,9534.39z M765.85,8570.58
		c-81.25-198.43-216.01-612.5-264.57-812.96c-36.66-151.86-81.25-400.91-114.94-635.79c-10.9-73.91-23.78-140.72-28.74-146.8
		c-4.95-7.09-11.89-21.26-14.86-32.4c-11.89-41.51,4.95,97.19,38.64,319.92c36.66,248.04,83.23,454.57,161.51,718.81
		c73.33,251.08,246.73,717.79,255.65,690.46C800.53,8665.75,785.66,8620.19,765.85,8570.58z M233.74,7198.77
		c-2.97-8.1-5.95-5.06-5.95,6.07c-0.99,11.14,1.98,17.21,4.95,13.16C235.72,7214.97,236.71,7205.86,233.74,7198.77z M360.57,6837.35
		c-3.96-25.31-9.91-40.5-11.89-33.41c-2.97,7.09-1.98,39.48,2.97,70.87c4.95,36.45,8.92,48.6,11.89,33.41
		C365.53,6895.05,364.54,6862.66,360.57,6837.35z M2521.69,1742.93c590.57-529.49,1279.23-931.41,2025.36-1183.5
		c350.77-118.45,750.1-208.56,1162.3-263.23c138.72-18.22,195.2-29.36,309.15-59.73c56.48-15.19-82.24-6.07-288.35,19.24
		c-1334.72,165.02-2562.42,776.51-3477,1732.22l-118.91,124.53l134.76-131.61C2342.34,1907.95,2456.29,1801.65,2521.69,1742.93z
		 M5669.72,592.84c-6.94-2.02-20.81-2.02-29.73,0c-9.91,3.04-3.96,5.06,11.89,5.06C5668.73,597.9,5675.66,595.88,5669.72,592.84z"/>
	<path class="st0" d="M11442.59,2364.55c-424.1-550.75-912.6-1011.39-1480.38-1395.09C9171.49,433.89,8285.65,90.69,7371.06-36.88
		C7172.89-65.22,7145.14-70.29,7161-75.35c19.82-8.1,327.98,36.45,522.19,73.91c940.35,185.27,1820.25,584.16,2596.11,1179.45
		c345.82,264.24,670.83,573.02,954.22,904.08c126.83,148.82,273.48,339.16,266.55,346.24
		C11498.08,2431.36,11471.33,2402.01,11442.59,2364.55z"/>
</g>
</svg>
