<?xml version="1.0" encoding="utf-8"?>
<!-- Generator: Adobe Illustrator 27.7.0, SVG Export Plug-In . SVG Version: 6.00 Build 0)  -->
<svg version="1.1" id="Layer_1" xmlns="http://www.w3.org/2000/svg" xmlns:xlink="http://www.w3.org/1999/xlink" x="0px" y="0px"
	 viewBox="0 0 30 30" style="enable-background:new 0 0 30 30;" xml:space="preserve">
<style type="text/css">
	.st0{fill:#FF136B;}
</style>
<path class="st0" d="M8.5,19h13c0.3,0,0.5,0.2,0.5,0.5S21.8,20,21.5,20h-13C8.2,20,8,19.8,8,19.5S8.2,19,8.5,19z M8.5,15h13
	c0.3,0,0.5,0.2,0.5,0.5S21.8,16,21.5,16h-13C8.2,16,8,15.8,8,15.5S8.2,15,8.5,15z M8.5,11h13c0.3,0,0.5,0.2,0.5,0.5S21.8,12,21.5,12
	h-13C8.2,12,8,11.8,8,11.5S8.2,11,8.5,11z M18.5,2C18.2,2,18,2.2,18,2.5v4C18,7.3,18.7,8,19.5,8h4c0.7,0,0.7-1,0-1h-4
	C19.2,7,19,6.8,19,6.5v-4C19,2.2,18.8,2,18.5,2z M4.5,0C3.7,0,3,0.7,3,1.5v27C3,29.3,3.7,30,4.5,30h21c0.8,0,1.5-0.7,1.5-1.5v-21
	c0-0.1-0.1-0.3-0.1-0.4l-7-7C19.8,0.1,19.6,0,19.5,0H4.5z M4.5,1h14.8L26,7.7v20.8c0,0.3-0.2,0.5-0.5,0.5h-21C4.2,29,4,28.8,4,28.5
	v-27C4,1.2,4.2,1,4.5,1z"/>
</svg>
